Coordinates
version=1
nRows=10
nColumns=63
inDegrees=yes

Units are S.I. units (second, meters, Newtons, ...)
If the header above contains a line with 'inDegrees', this indicates whether rotational values are in degrees (yes) or radians (no).

endheader
time	pelvis_tilt	pelvis_list	pelvis_rotation	pelvis_tx	pelvis_ty	pelvis_tz	hip_flexion_r	hip_adduction_r	hip_rotation_r	knee_angle_r	knee_angle_r_beta	ankle_angle_r	subtalar_angle_r	mtp_angle_r	hip_flexion_l	hip_adduction_l	hip_rotation_l	knee_angle_l	knee_angle_l_beta	ankle_angle_l	subtalar_angle_l	mtp_angle_l	L5_S1_Flex_Ext	L5_S1_Lat_Bending	L5_S1_axial_rotation	L4_L5_Flex_Ext	L4_L5_Lat_Bending	L4_L5_axial_rotation	L3_L4_Flex_Ext	L3_L4_Lat_Bending	L3_L4_axial_rotation	L2_L3_Flex_Ext	L2_L3_Lat_Bending	L2_L3_axial_rotation	L1_L2_Flex_Ext	L1_L2_Lat_Bending	L1_L2_axial_rotation	L1_T12_Flex_Ext	L1_T12_Lat_Bending	L1_T12_axial_rotation	Abs_r3	Abs_r2	Abs_r1	Abs_t1	Abs_t2	neck_flexion	neck_bending	neck_rotation	arm_flex_r	arm_add_r	arm_rot_r	elbow_flex_r	pro_sup_r	wrist_flex_r	wrist_dev_r	arm_flex_l	arm_add_l	arm_rot_l	elbow_flex_l	pro_sup_l	wrist_flex_l	wrist_dev_l
2.576271	5.547535	-0.897942	97.415846	0.114435	0.831102	0.806039	6.138152	1.544449	-8.740461	13.056627	0.227881	32.968193	12.609885	0.000000	3.317984	-0.496948	10.815741	7.080962	0.123586	29.014713	-6.382073	0.000000	0.040084	0.751679	0.052546	0.074440	0.999732	0.055830	0.065854	1.827631	0.055830	0.045812	1.827631	0.045978	0.037222	1.532823	0.042694	0.022904	1.164350	0.039410	0.286317	8.503138	0.292246	0.000000	0.000000	26.439154	4.298063	32.264640	11.290205	-18.876817	35.849041	53.232711	61.693989	-11.254607	-8.036796	15.467589	-11.194742	52.268820	44.978011	70.759785	-10.846695	-2.452883
2.593220	5.511982	-0.617957	96.664514	0.114201	0.831738	0.802934	5.762636	1.552819	-8.152505	13.154354	0.229587	33.009745	12.634940	0.000000	2.488244	-0.426943	11.247040	6.584135	0.114915	28.448025	-7.895855	0.000000	0.035575	0.761638	0.164309	0.066067	1.012978	0.174578	0.058447	1.851845	0.174578	0.040659	1.851845	0.143770	0.033035	1.553131	0.133501	0.020328	1.179776	0.123232	0.254110	8.615796	0.913838	0.000000	0.000000	26.137662	4.332105	32.102830	10.857379	-19.601594	34.746785	52.048045	66.914691	-13.322903	-8.809679	14.186305	-11.277723	49.156065	44.445415	75.557622	-12.276391	-0.956147
2.610169	5.506743	-0.276620	95.946604	0.114040	0.832474	0.799638	5.256416	1.624343	-7.407905	13.122192	0.229025	33.024570	12.517490	0.000000	1.606415	-0.407987	11.627836	6.120016	0.106814	27.948874	-9.265847	0.000000	0.027176	0.772178	0.262528	0.050468	1.026996	0.278936	0.044647	1.877473	0.278936	0.031059	1.877473	0.229712	0.025235	1.574625	0.213304	0.015528	1.196103	0.196896	0.194113	8.735027	1.460103	0.000000	0.000000	25.725104	4.387218	31.759286	10.536677	-20.326165	33.978221	50.698115	72.317574	-15.402680	-9.377779	12.789232	-11.392225	45.807115	44.006645	79.796897	-13.597247	0.326643
2.627119	5.530751	0.125437	95.312153	0.113852	0.833282	0.796221	4.605922	1.751976	-6.538418	12.934299	0.225746	32.993560	12.252880	0.000000	0.693790	-0.435795	11.971609	5.717496	0.099789	27.538299	-10.449095	0.000000	0.015030	0.783736	0.340198	0.027913	1.042368	0.361460	0.024693	1.905575	0.361460	0.017178	1.905575	0.297673	0.013957	1.598194	0.276411	0.008588	1.214006	0.255148	0.107360	8.865774	1.892079	0.000000	0.000000	25.212892	4.465871	31.240235	10.273204	-21.013725	33.376692	49.261128	77.332739	-17.379984	-9.687496	11.344910	-11.530204	42.429271	43.622839	83.378656	-14.788622	1.281689
2.644068	5.585964	0.571239	94.811772	0.113613	0.834106	0.792734	3.825618	1.930375	-5.726120	12.587436	0.219692	32.947808	12.007985	0.000000	-0.219095	-0.510834	12.333325	5.389047	0.094057	27.203484	-11.451254	0.000000	0.001890	0.795775	0.389111	0.003510	1.058380	0.413431	0.003105	1.934846	0.413431	0.002160	1.934846	0.340472	0.001755	1.622744	0.316153	0.001080	1.232655	0.291833	0.013500	9.001962	2.164119	0.000000	0.000000	24.616632	4.598566	30.595711	10.015799	-21.621474	32.805461	47.825357	81.496755	-19.178714	-9.624346	9.886936	-11.707438	39.133409	43.283343	86.202682	-15.812467	1.906744
2.661017	5.663998	1.055179	94.451311	0.113326	0.834931	0.789239	2.915228	2.154451	-4.728636	12.072847	0.210711	32.801955	11.429145	0.000000	-1.111271	-0.623808	12.656906	5.164693	0.090141	26.956993	-12.203729	0.000000	-0.012179	0.807300	0.415304	-0.022617	1.073708	0.441261	-0.020009	1.962868	0.441261	-0.013919	1.962868	0.363391	-0.011309	1.646245	0.337435	-0.006959	1.250507	0.311478	-0.086992	9.132334	2.309797	0.000000	0.000000	23.951517	4.777326	29.817413	9.726789	-22.146631	32.275952	46.434496	84.326966	-20.752577	-9.275432	8.516926	-11.938076	36.219119	42.920291	88.219925	-16.727970	2.202499
2.677966	5.756224	1.554985	94.264145	0.112929	0.835711	0.785767	1.904877	2.409278	-3.599259	11.411276	0.199164	32.551062	10.508396	0.000000	-1.957405	-0.757597	13.013672	5.043453	0.088025	26.775024	-12.781056	0.000000	-0.024364	0.817683	0.410035	-0.045246	1.087519	0.435662	-0.040028	1.988115	0.435662	-0.027846	1.988115	0.358781	-0.022624	1.667420	0.333154	-0.013922	1.266592	0.307526	-0.174030	9.249798	2.280493	0.000000	0.000000	23.242353	5.010921	28.967646	9.379328	-22.565502	31.723468	45.128697	85.646285	-22.004830	-8.615066	7.229968	-12.232589	33.696950	42.542328	89.398441	-17.494435	2.242503
2.694915	5.846780	2.057746	94.239385	0.112433	0.836438	0.782376	0.828939	2.672058	-2.409445	10.645416	0.185798	32.216472	9.331619	0.000000	-2.747737	-0.899675	13.352891	5.016848	0.087561	26.654491	-13.150437	0.000000	-0.034120	0.824630	0.380135	-0.063365	1.096757	0.403894	-0.056057	2.005004	0.403894	-0.038996	2.005004	0.332619	-0.031684	1.681585	0.308860	-0.019496	1.277351	0.285102	-0.243719	9.328375	2.114199	0.000000	0.000000	22.520285	5.268726	27.957357	8.953574	-22.898093	31.253658	43.920661	85.074130	-22.820925	-7.815654	6.065418	-12.591981	31.680228	42.127574	89.764239	-18.112820	2.089673
2.711864	5.930205	2.546287	94.372169	0.111834	0.837091	0.779146	-0.269075	2.932440	-1.209615	9.820738	0.171404	31.816461	7.942540	0.000000	-3.462070	-1.043425	13.673496	5.076202	0.088596	26.591359	-13.340950	0.000000	-0.041165	0.828327	0.323026	-0.076448	1.101674	0.343215	-0.067630	2.013993	0.343215	-0.047048	2.013993	0.282648	-0.038226	1.689124	0.262459	-0.023522	1.283078	0.242269	-0.294038	9.370197	1.796573	0.000000	0.000000	21.806542	5.535506	26.848521	8.460087	-23.141881	30.857306	42.806208	82.773952	-23.172509	-6.956565	5.019456	-13.005664	30.159899	41.657234	89.453339	-18.647740	1.807529
2.728814	5.989623	3.016377	94.647174	0.111181	0.837678	0.776126	-1.366946	3.172462	-0.062877	8.971522	0.156583	31.376788	6.436240	0.000000	-4.102974	-1.176277	13.959805	5.198356	0.090728	26.576482	-13.369367	0.000000	-0.047173	0.826268	0.238679	-0.087605	1.098937	0.253596	-0.077500	2.008989	0.253596	-0.053914	2.008989	0.208844	-0.043805	1.684926	0.193927	-0.026955	1.279890	0.179009	-0.336950	9.346913	1.327460	0.000000	0.000000	21.129068	5.754438	25.563948	7.968109	-23.313034	30.741351	41.725020	78.959023	-23.057323	-6.259574	4.053069	-13.486596	28.981545	41.179366	88.719261	-19.013478	1.494222
